<svg width="860" height="168" viewBox="0 0 860 168" fill="none" xmlns="http://www.w3.org/2000/svg">
<path d="M209.738 5.02083V12.9939H192.464V54.9409H183.826V12.9944H166.192V5.02083H209.738ZM211.68 50.1856C212.288 50.1856 212.82 50.4026 213.271 50.8376C213.728 51.2721 213.956 51.7928 213.962 52.3993C213.961 52.7972 213.849 53.1872 213.64 53.5265C213.434 53.8613 213.146 54.1388 212.803 54.333C212.463 54.5341 212.075 54.639 211.68 54.6362C211.047 54.6362 210.509 54.4187 210.059 53.9842C209.608 53.5492 209.385 53.0227 209.391 52.3993C209.385 51.7928 209.608 51.2721 210.059 50.8376C210.509 50.4026 211.047 50.1856 211.68 50.1856ZM40.4863 54.9409L8.6377 15.6702V54.9206H0V5H10.7964L51.0337 54.5674L51.0342 12.9944L51.0308 5.02083H94.5757V12.9939H59.6714V25.8207H87.7417V33.7942H59.6714V46.9678H94.5762V54.9409H40.4863ZM122.258 33.7182L127.919 40.6998L116.32 55H104.984L122.258 33.7182ZM116.32 5.04166L130.934 23.0465L145.502 5.09688L156.806 5.07992L136.593 30.0189L156.839 54.9617H145.502L105.017 5.04166H116.32ZM226.421 33.6063H230.249V48.235C230.243 49.5792 229.95 50.7286 229.377 51.696C228.797 52.6623 227.995 53.4005 226.966 53.9213C225.941 54.4357 224.742 54.6992 223.378 54.6992C222.131 54.6992 221.014 54.4764 220.019 54.0414C219.024 53.6064 218.234 52.9544 217.655 52.0961C217.069 51.2382 216.782 50.1682 216.782 48.887H220.616C220.622 49.4474 220.75 49.9332 220.996 50.3401C221.238 50.7417 221.592 51.0653 222.015 51.2721C222.453 51.4901 222.957 51.5986 223.524 51.5986C224.139 51.5986 224.666 51.4726 225.093 51.215C225.52 50.9631 225.848 50.5857 226.076 50.0824C226.298 49.5845 226.416 48.9669 226.421 48.2345V33.6063ZM245.997 39.327C245.904 38.4405 245.494 37.7479 244.78 37.2562C244.06 36.7582 243.129 36.5127 241.988 36.5127C241.187 36.5127 240.496 36.6328 239.922 36.8672C239.349 37.1075 238.904 37.4277 238.6 37.8341C238.296 38.24 238.144 38.7036 238.131 39.2243C238.131 39.6588 238.237 40.0366 238.441 40.351C238.654 40.6806 238.94 40.9568 239.278 41.158C239.646 41.3871 240.039 41.5732 240.449 41.7126C240.882 41.8613 241.315 41.9873 241.748 42.0904L243.744 42.5768C244.546 42.7599 245.324 43.0055 246.067 43.3203C246.81 43.6294 247.483 44.0241 248.074 44.4988C248.666 44.9736 249.134 45.5456 249.479 46.215C249.824 46.8845 250 47.6682 250 48.5721C250 49.7904 249.684 50.8604 249.046 51.787C248.408 52.7083 247.489 53.4291 246.284 53.9498C245.084 54.4647 243.632 54.7278 241.924 54.7278C240.273 54.7278 238.834 54.4759 237.622 53.9726C236.405 53.4751 235.457 52.7422 234.772 51.7812C234.087 50.8202 233.719 49.6475 233.666 48.2689H237.459C237.511 48.9897 237.746 49.5903 238.144 50.0766C238.547 50.5571 239.074 50.9117 239.718 51.152C240.367 51.3869 241.093 51.507 241.895 51.507C242.731 51.507 243.469 51.3811 244.106 51.135C244.739 50.889 245.236 50.546 245.593 50.0994C245.956 49.6586 246.138 49.1384 246.144 48.5435C246.138 48 245.973 47.5481 245.657 47.193C245.335 46.8385 244.891 46.541 244.323 46.3008C243.75 46.0605 243.083 45.843 242.322 45.6546L239.899 45.0481C238.149 44.6073 236.762 43.9384 235.75 43.0399C234.731 42.1418 234.228 40.9521 234.228 39.4587C234.228 38.2347 234.567 37.1588 235.252 36.2375C235.931 35.3172 236.862 34.6017 238.038 34.0926C239.22 33.5777 240.555 33.3258 242.041 33.3258C243.551 33.3258 244.873 33.5777 246.015 34.0926C247.155 34.6017 248.051 35.3109 248.7 36.2148C249.35 37.1191 249.69 38.1543 249.708 39.327H245.997Z" fill="white"/>
<path d="M480.667 5C469.556 5 462.611 10.5556 459.833 21.6667C464 16.1111 468.861 14.0278 474.417 15.4167C477.587 16.2083 479.851 18.5069 482.361 21.0556C486.448 25.2014 491.174 30 501.5 30C512.611 30 519.556 24.4444 522.333 13.3333C518.167 18.8889 513.306 20.9722 507.75 19.5833C504.58 18.7917 502.316 16.4931 499.806 13.9444C495.722 9.79861 490.997 5 480.667 5ZM459.833 30C448.722 30 441.778 35.5556 439 46.6667C443.167 41.1111 448.028 39.0278 453.583 40.4167C456.753 41.2083 459.017 43.5069 461.528 46.0556C465.615 50.2014 470.34 55 480.667 55C491.778 55 498.722 49.4444 501.5 38.3333C497.333 43.8889 492.472 45.9722 486.917 44.5833C483.747 43.7917 481.483 41.4931 478.972 38.9444C474.889 34.7986 470.163 30 459.833 30Z" fill="white"/>
<path d="M345.534 24.1042C348.747 24.1042 351.368 26.7246 351.368 30C351.368 33.1195 348.747 35.771 345.534 35.771C342.321 35.771 339.701 33.1195 339.701 30C339.701 26.7246 342.321 24.1042 345.534 24.1042ZM331.091 54.9557C333.056 56.1411 337.361 54.3318 342.321 49.6526C340.699 47.8121 339.108 45.8157 337.611 43.7256C335.097 43.4833 332.598 43.1085 330.124 42.6026C328.533 49.2783 329.126 53.8639 331.091 54.9557ZM333.306 37.05L332.401 35.4591C332.058 36.3637 331.715 37.2684 331.497 38.1418C332.339 38.329 333.275 38.4849 334.242 38.6409L333.306 37.05ZM353.707 34.6792L356.234 30L353.707 25.3208C352.771 23.6675 351.773 22.2013 350.869 20.7352C349.184 20.6416 347.406 20.6416 345.534 20.6416C343.663 20.6416 341.884 20.6416 340.2 20.7352C339.295 22.2013 338.297 23.6675 337.361 25.3208L334.834 30L337.361 34.6792C338.297 36.3325 339.295 37.7987 340.2 39.2648C341.884 39.3584 343.663 39.3584 345.534 39.3584C347.406 39.3584 349.184 39.3584 350.869 39.2648C351.773 37.7987 352.771 36.3325 353.707 34.6792ZM345.534 13.7164C344.942 14.4027 344.318 15.1202 343.694 15.9624H347.375C346.751 15.1202 346.127 14.4027 345.534 13.7164ZM345.534 46.2836C346.127 45.5973 346.751 44.8798 347.375 44.0376H343.694C344.318 44.8798 344.942 45.5973 345.534 46.2836ZM359.946 5.04428C358.012 3.85888 353.707 5.66817 348.747 10.3474C350.369 12.1879 351.96 14.1843 353.458 16.2744C356.016 16.5239 358.542 16.8982 360.944 17.3974C362.535 10.7217 361.943 6.13609 359.946 5.04428ZM357.763 22.95L358.667 24.5409C359.01 23.6363 359.353 22.7316 359.572 21.8582C358.73 21.671 357.794 21.5151 356.827 21.3591L357.763 22.95ZM362.286 0.957779C366.871 3.57813 367.371 10.4721 365.436 18.5204C373.36 20.86 379.069 24.7281 379.069 30C379.069 35.2719 373.36 39.14 365.436 41.4796C367.371 49.5279 366.871 56.4219 362.286 59.0422C357.731 61.6626 351.524 58.6679 345.534 52.9593C339.545 58.6679 333.337 61.6626 328.752 59.0422C324.197 56.4219 323.698 49.5279 325.632 41.4796C317.709 39.14 312 35.2719 312 30C312 24.7281 317.709 20.86 325.632 18.5204C323.698 10.4721 324.197 3.57813 328.752 0.957779C333.337 -1.66257 339.545 1.33211 345.534 7.04074C351.524 1.33211 357.731 -1.66257 362.286 0.957779ZM361.381 30C362.442 32.3396 363.378 34.6792 364.157 37.05C370.708 35.0847 374.389 32.2772 374.389 30C374.389 27.7228 370.708 24.9153 364.157 22.95C363.378 25.3208 362.442 27.6604 361.381 30ZM329.687 30C328.627 27.6604 327.691 25.3208 326.911 22.95C320.36 24.9153 316.679 27.7228 316.679 30C316.679 32.2772 320.36 35.0847 326.911 37.05C327.691 34.6792 328.627 32.3396 329.687 30ZM357.763 37.05L356.827 38.6409C357.794 38.4849 358.73 38.329 359.572 38.1418C359.353 37.2684 359.01 36.3637 358.667 35.4591L357.763 37.05ZM348.747 49.6526C353.707 54.3318 358.012 56.1411 359.946 54.9557C361.943 53.8639 362.535 49.2783 360.944 42.6026C358.542 43.1018 356.016 43.4761 353.458 43.7256C351.96 45.8157 350.369 47.8121 348.747 49.6526ZM333.306 22.95L334.242 21.3591C333.275 21.5151 332.339 21.671 331.497 21.8582C331.715 22.7316 332.058 23.6363 332.401 24.5409L333.306 22.95ZM342.321 10.3474C337.361 5.66817 333.056 3.85888 331.091 5.04428C329.126 6.13609 328.533 10.7217 330.124 17.3974C332.598 16.8915 335.097 16.5167 337.611 16.2744C339.108 14.1843 340.699 12.1879 342.321 10.3474Z" fill="#CFCFCF"/>
<path d="M620.846 50.0401V20.8394L608 28.2576L608.022 17.1991L629.379 5V55L620.846 50.0401ZM631.301 55L639.836 50.0401V35.9865L646.271 39.6956L646.226 30.0885L639.836 26.4246V20.8394L652.682 28.2576L652.661 17.1991L631.303 5L631.301 55Z" fill="white"/>
<path d="M677.198 20.4559H669.11V44.6476H664.435V20.4579H656.366V16.4892H677.198V20.4559ZM693.929 35.8312H680.221C680.274 37.6916 680.844 39.1253 681.932 40.1322C683.031 41.1418 684.535 41.6465 686.446 41.6465C688.593 41.6465 690.564 41.0041 692.357 39.7192V43.3929C690.524 44.5454 688.103 45.121 685.093 45.1196C682.135 45.1196 679.811 44.2104 678.121 42.3919C676.445 40.559 675.607 37.9866 675.607 34.6748C675.607 31.5478 676.531 29.001 678.378 27.0344C680.235 25.0585 682.539 24.07 685.289 24.0687C688.036 24.0687 690.163 24.953 691.669 26.7217C693.175 28.4903 693.929 30.9447 693.929 34.0848V35.8312ZM689.529 32.6157C689.516 30.9781 689.13 29.7083 688.371 28.8063C687.611 27.8885 686.563 27.4297 685.228 27.4297C683.92 27.4297 682.807 27.9082 681.891 28.8653C680.986 29.8185 680.43 31.0686 680.221 32.6157H689.529ZM716.175 44.6476H711.617V33.3198C711.617 29.5622 710.289 27.6834 707.634 27.6834C706.246 27.6834 705.101 28.2071 704.199 29.2547C703.294 30.2905 702.842 31.5996 702.842 33.1821V44.6476H698.269V24.5407H702.843V27.88H702.922C704.429 25.3404 706.602 24.07 709.442 24.0687C711.627 24.0687 713.297 24.7826 714.451 26.2103C715.602 27.6237 716.177 29.6723 716.177 32.3561L716.175 44.6476ZM720.476 44.0183V39.7979C722.177 41.0933 724.055 41.7409 726.111 41.7409C728.859 41.7409 730.234 40.9294 730.235 39.3062C730.249 38.8915 730.124 38.484 729.881 38.1479C729.62 37.8012 729.294 37.5086 728.921 37.2865C728.475 37.0119 728 36.7877 727.505 36.6178C726.902 36.3975 726.301 36.1746 725.7 35.9492C724.932 35.6497 724.184 35.3022 723.46 34.9088C722.852 34.5788 722.295 34.1613 721.808 33.6698C721.383 33.2075 721.05 32.6681 720.828 32.0808C720.596 31.4197 720.482 30.7225 720.494 30.0217C720.494 29.0515 720.724 28.1999 721.182 27.467C721.639 26.7197 722.254 26.0982 723.027 25.6026C723.833 25.0754 724.723 24.6896 725.659 24.462C726.642 24.1998 727.656 24.0687 728.701 24.0687C730.563 24.0687 732.226 24.3506 733.69 24.9143V28.9027C732.276 27.9325 730.653 27.448 728.821 27.4493C728.292 27.4434 727.764 27.5022 727.25 27.6244C726.833 27.723 726.435 27.8891 726.072 28.116C725.76 28.3087 725.497 28.5713 725.305 28.883C725.123 29.1699 725.027 29.503 725.029 29.8427C725.017 30.2282 725.113 30.6095 725.305 30.9441C725.488 31.2456 725.757 31.5137 726.111 31.7484C726.478 31.9713 726.909 32.1804 727.405 32.3758C727.916 32.5593 728.5 32.7625 729.155 32.9854C730.018 33.3394 730.79 33.6993 731.472 34.0651C732.166 34.4322 732.754 34.8518 733.236 35.3238C733.721 35.7813 734.095 36.3169 734.357 36.9305C734.619 37.5336 734.75 38.2541 734.75 39.0919C734.75 40.1132 734.514 41.0028 734.042 41.7606C733.567 42.5255 732.922 43.1713 732.158 43.6486C731.318 44.1673 730.396 44.5385 729.431 44.746C728.369 44.9986 727.281 45.124 726.19 45.1196C723.991 45.1196 722.086 44.7525 720.476 44.0183ZM747.984 45.1196C744.882 45.1196 742.402 44.1842 740.544 42.3132C738.697 40.4279 737.774 37.9329 737.775 34.8282C737.775 31.4534 738.737 28.8168 740.66 26.9183C742.598 25.0185 745.203 24.0687 748.476 24.0687C751.617 24.0687 754.065 24.9923 755.819 26.8397C757.573 28.6857 758.45 31.2443 758.45 34.5155C758.45 37.725 757.501 40.2974 755.603 42.2326C753.719 44.1586 751.179 45.121 747.984 45.1196ZM748.2 27.7011C746.421 27.7011 745.014 28.3238 743.978 29.5694C742.945 30.8123 742.428 32.5266 742.428 34.7122C742.428 36.8217 742.952 38.4848 743.999 39.7015C745.047 40.9051 746.447 41.5069 748.2 41.5069C749.995 41.5069 751.37 40.911 752.324 39.7192C753.293 38.5274 753.778 36.8329 753.778 34.6355C753.778 32.4223 753.293 30.714 752.324 29.5104C751.37 28.3042 749.995 27.7011 748.2 27.7011ZM774.75 28.881C774.201 28.4484 773.407 28.2321 772.37 28.2321C771.024 28.2321 769.899 28.8411 768.996 30.0591C768.091 31.2758 767.639 32.9317 767.639 35.0268V44.6476H763.084V24.5407H767.643V28.6844H767.717C768.164 27.271 768.845 26.171 769.761 25.3843C770.691 24.5872 771.726 24.1886 772.864 24.1886C773.689 24.1886 774.317 24.3132 774.748 24.5623L774.75 28.881ZM793.677 20.4559H783.155V28.9204H792.851V32.8674H783.151V44.6476H778.481V16.4912H793.677V20.4559ZM802.749 44.6476H798.173V14.8805H802.749V44.6476ZM817.593 45.1196C814.49 45.1196 812.01 44.1842 810.154 42.3132C808.305 40.4279 807.381 37.9329 807.383 34.8282C807.381 31.4534 808.344 28.8168 810.27 26.9183C812.207 25.0185 814.812 24.0687 818.083 24.0687C821.226 24.0687 823.674 24.9923 825.426 26.8397C827.183 28.6857 828.061 31.2443 828.06 34.5155C828.06 37.725 827.111 40.2974 825.212 42.2326C823.328 44.1586 820.787 45.121 817.593 45.1196ZM817.81 27.7011C816.029 27.7011 814.622 28.3238 813.587 29.5694C812.554 30.8123 812.037 32.5266 812.036 34.7122C812.036 36.8217 812.559 38.4848 813.607 39.7015C814.656 40.9051 816.057 41.5069 817.81 41.5069C819.602 41.5069 820.977 40.911 821.934 39.7192C822.901 38.5274 823.385 36.8329 823.385 34.6355C823.385 32.4223 822.901 30.714 821.934 29.5104C820.978 28.3042 819.603 27.7011 817.81 27.7011ZM859.731 24.5407L853.801 44.6476H849.028L845.376 31.0188C845.224 30.4418 845.132 29.8507 845.101 29.2547H845.022C844.97 29.8416 844.852 30.4209 844.67 30.9814L840.701 44.6496H836.029L830.119 24.5407H834.833L838.483 39.0348C838.601 39.4649 838.68 40.0398 838.719 40.7596H838.857C838.896 40.2089 839.001 39.6209 839.171 38.9955L843.236 24.5407H847.516L851.129 39.0919C851.247 39.5508 851.332 40.1276 851.384 40.8225H851.522C851.565 40.2376 851.664 39.6581 851.817 39.0919L855.392 24.5407H859.731Z" fill="white"/>
<path d="M587.611 108H547.389C546.092 108 544.849 108.515 543.932 109.432C543.015 110.349 542.5 111.592 542.5 112.889V153.111C542.5 154.408 543.015 155.651 543.932 156.568C544.849 157.485 546.092 158 547.389 158H587.611C588.253 158 588.889 157.874 589.482 157.628C590.075 157.382 590.614 157.022 591.068 156.568C591.522 156.114 591.882 155.575 592.128 154.982C592.373 154.389 592.5 153.753 592.5 153.111V112.889C592.5 112.247 592.373 111.611 592.128 111.018C591.882 110.425 591.522 109.886 591.068 109.432C590.614 108.978 590.075 108.618 589.482 108.372C588.889 108.126 588.253 108 587.611 108ZM571.5 135.778H565.25V153.667H560.278V135.778H554.028V131.722H571.5V135.778ZM587.611 150.444C587.209 151.299 586.561 152.015 585.75 152.5C584.897 153.025 583.956 153.392 582.972 153.583C581.876 153.81 580.758 153.921 579.639 153.917C578.493 153.916 577.35 153.813 576.222 153.611C575.264 153.415 574.331 153.107 573.444 152.694V147.944L573.278 147.778H573.444V147.972C574.28 148.624 575.219 149.131 576.222 149.472C577.224 149.854 578.289 150.042 579.361 150.028C579.921 150.038 580.481 149.982 581.028 149.861C581.439 149.765 581.832 149.606 582.194 149.389C582.478 149.216 582.716 148.978 582.889 148.694C583.06 148.372 583.135 148.007 583.105 147.642C583.076 147.278 582.943 146.93 582.722 146.639C582.461 146.273 582.131 145.961 581.75 145.722C581.288 145.397 580.794 145.118 580.278 144.889L578.417 144.111C576.943 143.504 575.638 142.552 574.611 141.333C573.752 140.297 573.298 138.985 573.333 137.639C573.301 136.617 573.53 135.603 574 134.694C574.448 133.902 575.076 133.227 575.833 132.722C576.677 132.161 577.62 131.765 578.611 131.556C579.695 131.306 580.804 131.185 581.917 131.194C582.929 131.18 583.942 131.245 584.944 131.389C585.779 131.519 586.597 131.733 587.389 132.028V136.611C587.023 136.35 586.632 136.127 586.222 135.944C585.78 135.754 585.326 135.597 584.861 135.472C584.416 135.342 583.961 135.249 583.5 135.194C583.075 135.154 582.647 135.154 582.222 135.194C581.699 135.186 581.176 135.242 580.667 135.361C580.248 135.449 579.846 135.599 579.472 135.806C579.18 135.977 578.933 136.215 578.75 136.5C578.584 136.777 578.497 137.094 578.5 137.417C578.493 137.761 578.59 138.1 578.778 138.389C579.006 138.704 579.288 138.977 579.611 139.194C580.003 139.506 580.432 139.768 580.889 139.972L582.639 140.75C583.443 141.083 584.223 141.473 584.972 141.917C585.631 142.277 586.23 142.736 586.75 143.278C587.259 143.771 587.657 144.368 587.917 145.028C588.183 145.786 588.315 146.585 588.305 147.389C588.286 148.426 588.049 149.448 587.611 150.389V150.444Z" fill="white"/>
<path d="M97.2308 108L101.176 152.585L119.731 158L138.401 152.587L142.231 108H97.2308ZM130.481 144.805L119.748 147.815H119.731L108.988 144.805L108.246 136.888H113.516L113.891 140.702L119.728 142.3L125.578 140.7L126.191 133.075H108.016L107.548 128.06H126.648L127.083 123.045H107.041L106.601 118.03H132.866L130.481 144.805Z" fill="white" fill-opacity="0.8"/>
<path d="M400.44 122.995V158H387.82V122.995H400.44ZM416.714 122.926L422.479 131.246L428.4 122.926H441.409L428.789 139.565L442.5 157.932H428.555L421.623 148.434L414.689 157.932H401.679L415.312 140.115L402.771 122.926L416.714 122.926ZM371.306 121.82C380.792 121.82 383.636 128.359 383.692 135.572L383.692 135.791V157.768H371.072V139.023L371.07 138.742L371.066 138.465L371.059 138.194L371.05 137.929C371.048 137.885 371.046 137.842 371.044 137.798L371.031 137.541C371.027 137.457 371.021 137.374 371.016 137.29L370.998 137.044C370.994 137.003 370.991 136.963 370.987 136.923L370.965 136.685L370.939 136.453C370.581 133.434 369.413 131.867 366.398 131.867C362.822 131.867 361.273 134.362 360.888 138.34L360.863 138.623C360.816 139.194 360.793 139.795 360.789 140.422L360.789 157.768H348.169V139.166L348.168 138.882C348.168 138.835 348.167 138.788 348.167 138.741L348.162 138.465L348.155 138.194L348.145 137.929L348.132 137.669C348.13 137.627 348.128 137.584 348.125 137.541L348.109 137.29L348.089 137.044L348.067 136.803C347.739 133.555 346.547 131.867 343.417 131.867C339.329 131.867 337.838 135.251 337.808 140.421L337.808 157.768H325.188V122.762H337.808V128.021C339.678 124.175 343.417 121.82 348.636 121.82C354.791 121.82 357.984 124.646 359.465 128.727C361.335 124.803 365.463 121.82 371.305 121.82M304.646 120.714C316.138 120.714 322.284 128.561 322.406 137.933L322.407 138.218V141.749H298.025C298.336 146.066 301.453 148.107 305.269 148.107C308.653 148.107 310.822 146.96 312.001 144.289L312.047 144.183L322.174 145.124C320.383 153.13 313.994 157.604 304.802 157.604C293.662 157.604 285.716 150.854 285.716 139.709C285.716 128.642 293.818 120.714 304.646 120.714M265.843 108C278.571 108 284.897 114.058 284.897 123.735C284.897 130.973 280.445 135.694 274.433 136.481C279.509 137.504 282.476 140.415 283.022 146.158L283.102 147.214L283.171 148.201L283.23 149.125L283.272 149.821L283.316 150.643L283.34 151.112L283.372 151.857L283.399 152.561L283.412 152.965L283.43 153.613L283.446 154.354L283.451 154.712L283.461 155.75L283.464 156.832L283.464 157.48H270.338C270.338 157.207 270.34 156.944 270.343 156.686L270.351 156.175L270.374 154.937L270.38 154.523L270.383 154.094L270.384 153.872L270.383 153.456L270.38 153.02L270.374 152.678L270.364 152.198L270.348 151.69L270.327 151.15L270.3 150.574L270.285 150.272L270.258 149.8L270.227 149.304L270.179 148.603L270.137 148.046C269.774 142.778 267.656 141.321 263.78 141.142L263.528 141.132L263.27 141.126C263.183 141.125 263.096 141.124 263.008 141.123L242.231 141.123V130.816H263.5C269.122 130.816 271.933 129.092 271.933 124.529C271.933 120.517 269.122 118.085 263.5 118.085H242.231V108H265.843ZM256.11 149.796C257.832 149.796 258.553 150.753 258.809 151.668L258.837 151.774L258.849 151.826L258.871 151.93L258.889 152.033L258.897 152.084L258.91 152.184L258.92 152.283L258.924 152.331L258.929 152.426L258.93 152.472L258.931 152.562V157.48H242.231V149.796H256.11ZM304.49 129.819C301.331 129.819 299.545 131.347 298.691 133.584L298.627 133.757L298.567 133.933C298.508 134.111 298.455 134.292 298.407 134.477L298.361 134.664C298.332 134.789 298.304 134.915 298.279 135.043L298.243 135.235C298.237 135.268 298.231 135.3 298.226 135.333L298.195 135.528L298.18 135.627H310.411C310.255 132.488 308.229 129.819 304.49 129.819M400.518 108.552V119.698H387.743V108.553L400.518 108.552Z" fill="white"/>
<g clip-path="url(#clip0_44_143)">
<mask id="mask0_44_143" style="mask-type:luminance" maskUnits="userSpaceOnUse" x="692" y="98" width="71" height="70">
<path d="M692.5 98H762.5V168H692.5V98Z" fill="white"/>
</mask>
<g mask="url(#mask0_44_143)">
<path d="M727.249 98C709.475 98 710.583 105.747 710.583 105.747L710.604 113.773H727.561V116.182H703.875C703.875 116.182 692.5 114.885 692.5 132.91C692.5 150.935 702.425 150.293 702.425 150.293H708.346V141.931C708.346 141.931 708.028 131.956 718.117 131.956H734.934C734.934 131.956 744.384 132.107 744.384 122.774V107.339C744.384 107.339 745.819 98 727.249 98ZM717.898 103.396C719.584 103.396 720.949 104.767 720.949 106.464C720.949 108.159 719.584 109.53 717.898 109.53C716.209 109.53 714.847 108.159 714.847 106.464C714.847 104.767 716.209 103.396 717.898 103.396Z" fill="white"/>
<path d="M727.754 168C745.522 168 744.414 160.253 744.414 160.253L744.393 152.227H727.436V149.817H751.128C751.128 149.817 762.503 151.115 762.503 133.09C762.503 115.065 752.574 115.707 752.574 115.707H746.654V124.069C746.654 124.069 746.972 134.044 736.883 134.044H720.068C720.068 134.044 710.618 133.892 710.618 143.226V158.661C710.618 158.661 709.183 168 727.754 168ZM737.104 162.604C735.416 162.604 734.054 161.233 734.054 159.536C734.054 157.841 735.416 156.47 737.104 156.47C738.79 156.47 740.155 157.841 740.155 159.536C740.155 161.233 738.79 162.604 737.104 162.604Z" fill="white"/>
</g>
</g>
<defs>
<clipPath id="clip0_44_143">
<rect width="70" height="70" fill="white" transform="translate(692.5 98)"/>
</clipPath>
</defs>
</svg>
